<svg width="20" height="19" viewBox="0 0 20 19" fill="none" xmlns="http://www.w3.org/2000/svg">
<g clip-path="url(#clip0_274_8543)">
<path d="M9.52105 0.779907C13.9031 0.779907 17.4552 4.33202 17.4552 8.71404C17.4552 13.0961 13.9031 16.6482 9.52105 16.6482H3.17374C2.75289 16.6482 2.34927 16.481 2.05168 16.1834C1.7541 15.8858 1.58691 15.4822 1.58691 15.0613V8.71404C1.58691 4.33202 5.13902 0.779907 9.52105 0.779907ZM9.52105 2.36673C7.83764 2.36673 6.22317 3.03547 5.03282 4.22582C3.84247 5.41617 3.17374 7.03063 3.17374 8.71404V15.0613H9.52105C11.2045 15.0613 12.8189 14.3926 14.0093 13.2023C15.1996 12.0119 15.8684 10.3974 15.8684 8.71404C15.8684 7.03063 15.1996 5.41617 14.0093 4.22582C12.8189 3.03547 11.2045 2.36673 9.52105 2.36673ZM9.52105 10.3009C9.72327 10.3011 9.91778 10.3785 10.0648 10.5173C10.2119 10.6562 10.3004 10.8459 10.3122 11.0478C10.3241 11.2497 10.2584 11.4484 10.1286 11.6035C9.9988 11.7586 9.81468 11.8583 9.61387 11.8821L9.52105 11.8877H7.14081C6.93858 11.8875 6.74407 11.81 6.59703 11.6712C6.44998 11.5324 6.36149 11.3427 6.34964 11.1408C6.33778 10.9389 6.40347 10.7401 6.53326 10.585C6.66306 10.43 6.84717 10.3303 7.04798 10.3064L7.14081 10.3009H9.52105ZM11.9013 7.12721C12.1117 7.12721 12.3135 7.2108 12.4623 7.3596C12.6111 7.50839 12.6947 7.7102 12.6947 7.92063C12.6947 8.13105 12.6111 8.33286 12.4623 8.48165C12.3135 8.63045 12.1117 8.71404 11.9013 8.71404H7.14081C6.93038 8.71404 6.72857 8.63045 6.57978 8.48165C6.43098 8.33286 6.34739 8.13105 6.34739 7.92063C6.34739 7.7102 6.43098 7.50839 6.57978 7.3596C6.72857 7.2108 6.93038 7.12721 7.14081 7.12721H11.9013Z" fill="black"/>
</g>
<defs>
<clipPath id="clip0_274_8543">
<rect width="19.0419" height="17.3075" fill="white" transform="translate(0 0.779907)"/>
</clipPath>
</defs>
</svg>
