<svg width="20" height="20" viewBox="0 0 20 20" fill="none" xmlns="http://www.w3.org/2000/svg">
<path d="M6.94245 5.86436C6.94245 5.18047 7.21413 4.5246 7.69771 4.04102C8.18128 3.55744 8.83716 3.28577 9.52105 3.28577C10.2049 3.28577 10.8608 3.55744 11.3444 4.04102C11.828 4.5246 12.0996 5.18047 12.0996 5.86436C12.0996 6.54824 11.828 7.20412 11.3444 7.6877C10.8608 8.17128 10.2049 8.44295 9.52105 8.44295C8.83716 8.44295 8.18128 8.17128 7.69771 7.6877C7.21413 7.20412 6.94245 6.54824 6.94245 5.86436ZM3.7688 4.87259C3.19013 4.87259 2.63516 5.10247 2.22597 5.51165C1.81679 5.92084 1.58691 6.47581 1.58691 7.05448C1.58691 7.63315 1.81679 8.18812 2.22597 8.59731C2.63516 9.00649 3.19013 9.23637 3.7688 9.23637C4.34747 9.23637 4.90244 9.00649 5.31163 8.59731C5.72081 8.18812 5.95069 7.63315 5.95069 7.05448C5.95069 6.47581 5.72081 5.92084 5.31163 5.51165C4.90244 5.10247 4.34747 4.87259 3.7688 4.87259ZM15.2733 4.87259C14.6946 4.87259 14.1396 5.10247 13.7305 5.51165C13.3213 5.92084 13.0914 6.47581 13.0914 7.05448C13.0914 7.63315 13.3213 8.18812 13.7305 8.59731C14.1396 9.00649 14.6946 9.23637 15.2733 9.23637C15.852 9.23637 16.4069 9.00649 16.8161 8.59731C17.2253 8.18812 17.4552 7.63315 17.4552 7.05448C17.4552 6.47581 17.2253 5.92084 16.8161 5.51165C16.4069 5.10247 15.852 4.87259 15.2733 4.87259ZM7.23998 9.63307C6.89804 9.63307 6.5701 9.76891 6.32831 10.0107C6.08652 10.2525 5.95069 10.5804 5.95069 10.9224V13.9968C5.95069 14.9438 6.32685 15.8519 6.99642 16.5215C7.66599 17.191 8.57413 17.5672 9.52105 17.5672C10.468 17.5672 11.3761 17.191 12.0457 16.5215C12.7152 15.8519 13.0914 14.9438 13.0914 13.9968V10.9224C13.0914 10.5804 12.9556 10.2525 12.7138 10.0107C12.472 9.76891 12.1441 9.63307 11.8021 9.63307H7.23998ZM5.21757 10.4225C5.17764 10.5828 5.15754 10.7494 5.15727 10.9224V13.9968C5.15667 14.6479 5.302 15.2908 5.58258 15.8782C5.86316 16.4657 6.27186 16.9828 6.77861 17.3915C6.71858 17.4113 6.65775 17.4293 6.59613 17.4454C6.14323 17.5668 5.67085 17.5979 5.20595 17.5367C4.74106 17.4756 4.29276 17.3235 3.88666 17.0891C3.48055 16.8547 3.1246 16.5426 2.83912 16.1706C2.55364 15.7986 2.34422 15.3741 2.22283 14.9212L1.63214 12.7179C1.58835 12.5543 1.5772 12.3837 1.59934 12.2159C1.62147 12.048 1.67645 11.8861 1.76114 11.7395C1.84583 11.5929 1.95857 11.4644 2.09293 11.3614C2.22728 11.2583 2.38061 11.1828 2.54417 11.139L5.21757 10.4225ZM12.2631 17.3915C12.7699 16.9828 13.1787 16.4657 13.4593 15.8783C13.74 15.2908 13.8854 14.6479 13.8848 13.9968V10.9224C13.8843 10.7494 13.8642 10.5828 13.8245 10.4225L16.4975 11.1386C16.8278 11.2271 17.1093 11.4431 17.2803 11.7392C17.4513 12.0353 17.4976 12.3872 17.4092 12.7175L16.8189 14.9208C16.6934 15.3892 16.4738 15.8271 16.1735 16.2079C15.8732 16.5886 15.4986 16.9042 15.0723 17.1354C14.646 17.3666 14.1772 17.5085 13.6942 17.5525C13.2113 17.5966 12.7241 17.5418 12.2631 17.3915Z" fill="black"/>
</svg>
