<svg width="20" height="20" viewBox="0 0 20 20" fill="none" xmlns="http://www.w3.org/2000/svg">
<path d="M12.6949 1.92944V3.51627M14.2143 17.7977C14.2143 16.5351 13.7128 15.3243 12.82 14.4315C11.9272 13.5388 10.7164 13.0372 9.45384 13.0372C8.19128 13.0372 6.98043 13.5388 6.08767 14.4315C5.19491 15.3243 4.69336 16.5351 4.69336 17.7977M6.34763 1.92944V3.51627" stroke="black" stroke-width="1.58683" stroke-linecap="round" stroke-linejoin="round"/>
<path d="M9.52131 13.0374C11.2741 13.0374 12.695 11.6165 12.695 9.86372C12.695 8.11096 11.2741 6.69006 9.52131 6.69006C7.76855 6.69006 6.34766 8.11096 6.34766 9.86372C6.34766 11.6165 7.76855 13.0374 9.52131 13.0374Z" stroke="black" stroke-width="1.58683" stroke-linecap="round" stroke-linejoin="round"/>
<path d="M15.075 3.51636H3.9672C3.09082 3.51636 2.38037 4.2268 2.38037 5.10318V16.211C2.38037 17.0873 3.09082 17.7978 3.9672 17.7978H15.075C15.9514 17.7978 16.6618 17.0873 16.6618 16.211V5.10318C16.6618 4.2268 15.9514 3.51636 15.075 3.51636Z" stroke="black" stroke-width="1.58683" stroke-linecap="round" stroke-linejoin="round"/>
</svg>
