<svg width="22" height="22" viewBox="0 0 22 22" fill="none" xmlns="http://www.w3.org/2000/svg">
<path fill-rule="evenodd" clip-rule="evenodd" d="M13.1055 1.39914C12.1209 1.12423 11.1991 1.4207 10.5442 2.02352C9.89826 2.61646 9.50836 3.50227 9.50836 4.44918V10.4639C9.50836 11.0107 9.72559 11.5352 10.1123 11.9218C10.4989 12.3085 11.0233 12.5257 11.5702 12.5257H17.584C18.5318 12.5257 19.4185 12.1358 20.0106 11.4899C20.6125 10.8349 20.9098 9.91319 20.6349 8.92855C20.1312 7.1332 19.1741 5.4976 17.8557 4.17899C16.5372 2.86037 14.9017 1.90308 13.1064 1.39914M10.8559 4.44918C10.8559 3.86342 11.0985 3.34236 11.4561 3.01444C11.8029 2.69552 12.252 2.55806 12.7435 2.69552C15.9328 3.58582 18.4474 6.10042 19.3377 9.28971C19.4751 9.78203 19.3377 10.2312 19.0187 10.578C18.6908 10.9347 18.1698 11.1772 17.584 11.1772H11.5702C11.3807 11.1772 11.1991 11.102 11.0651 10.968C10.9312 10.8341 10.8559 10.6524 10.8559 10.463V4.44918Z" fill="#1E1F23"/>
<path d="M7.95577 3.9811L7.95605 3.98102C8.01299 3.96312 8.0605 3.92334 8.08811 3.87042C8.11572 3.8175 8.12118 3.75578 8.10329 3.69883C8.08539 3.64189 8.04561 3.59438 7.99269 3.56677C7.93977 3.53915 7.87805 3.53369 7.8211 3.55159C4.37418 4.63542 1.87205 7.85646 1.87205 11.6632C1.87205 16.3572 5.67779 20.1628 10.3708 20.1628H10.371C12.1802 20.1635 13.9423 19.5867 15.4011 18.5166C16.8598 17.4465 17.9389 15.9387 18.4815 14.2128L18.4838 14.2055L18.4864 14.1982C18.4964 14.1698 18.5006 14.1397 18.4987 14.1096C18.4968 14.0795 18.4889 14.0501 18.4755 14.0231C18.462 13.9962 18.4432 13.9722 18.4203 13.9527C18.3974 13.9331 18.3707 13.9184 18.342 13.9093L18.4768 13.4808L18.342 13.9093C18.3132 13.9003 18.283 13.8971 18.253 13.9L18.2098 13.4529L18.253 13.9C18.223 13.9029 18.1939 13.9118 18.1674 13.9262C18.1409 13.9406 18.1176 13.9601 18.0988 13.9837C18.08 14.0073 18.0662 14.0344 18.0582 14.0635L18.0561 14.0709L18.0538 14.0782C17.5393 15.7125 16.517 17.1401 15.1354 18.1536C13.7539 19.1671 12.0852 19.7136 10.3718 19.7136L7.95577 3.9811ZM7.95577 3.9811C6.32148 4.49584 4.89409 5.51921 3.88088 6.90061C2.86759 8.28212 2.32124 9.95077 2.32124 11.6641C2.32124 12.7212 2.52948 13.768 2.93407 14.7447C3.33866 15.7214 3.93167 16.6088 4.67925 17.3563C5.42682 18.1038 6.31432 18.6967 7.29105 19.1012C8.26777 19.5056 9.31459 19.7138 10.3717 19.7136L7.95577 3.9811Z" stroke="#1E1F23" stroke-width="0.898391"/>
</svg>
