<svg width="22" height="22" viewBox="0 0 22 22" fill="none" xmlns="http://www.w3.org/2000/svg">
<path d="M11.1544 0.172852C17.1086 0.172852 21.9351 4.99937 21.9351 10.9535C21.9351 16.9077 17.1086 21.7342 11.1544 21.7342C5.20024 21.7342 0.373718 16.9077 0.373718 10.9535C0.373718 4.99937 5.20024 0.172852 11.1544 0.172852ZM11.1544 1.67676C8.69406 1.67676 6.33447 2.65413 4.59473 4.39387C2.855 6.1336 1.87763 8.49319 1.87763 10.9535C1.87763 13.4139 2.855 15.7735 4.59473 17.5132C6.33447 19.253 8.69406 20.2303 11.1544 20.2303C13.6148 20.2303 15.9744 19.253 17.7141 17.5132C19.4538 15.7735 20.4312 13.4139 20.4312 10.9535C20.4312 8.49319 19.4538 6.1336 17.7141 4.39387C15.9744 2.65413 13.6148 1.67676 11.1544 1.67676ZM10.1518 6.18956C10.5669 6.18956 10.9032 6.52699 10.9032 6.94205V12.2073H16.1685C16.363 12.2147 16.5471 12.2972 16.6821 12.4374C16.8171 12.5776 16.8925 12.7647 16.8925 12.9593C16.8925 13.1539 16.8171 13.341 16.6821 13.4812C16.5471 13.6214 16.363 13.7039 16.1685 13.7112H10.1518C9.95241 13.7107 9.76134 13.6312 9.62034 13.4902C9.47935 13.3492 9.39988 13.1582 9.39932 12.9588V6.94313C9.39932 6.52699 9.73567 6.18956 10.1518 6.18956Z" fill="#1E1F23"/>
</svg>
