<svg width="24" height="25" viewBox="0 0 24 25" fill="none" xmlns="http://www.w3.org/2000/svg">
<path d="M6 12.5001C6 11.9478 5.55228 11.5001 5 11.5001C4.44772 11.5001 4 11.9478 4 12.5001C4 13.0524 4.44772 13.5001 5 13.5001C5.55228 13.5001 6 13.0524 6 12.5001Z" stroke="black" stroke-width="1.99832" stroke-linecap="round" stroke-linejoin="round"/>
<path d="M13 12.5001C13 11.9478 12.5523 11.5001 12 11.5001C11.4477 11.5001 11 11.9478 11 12.5001C11 13.0524 11.4477 13.5001 12 13.5001C12.5523 13.5001 13 13.0524 13 12.5001Z" stroke="black" stroke-width="1.99832" stroke-linecap="round" stroke-linejoin="round"/>
<path d="M20 12.5001C20 11.9478 19.5523 11.5001 19 11.5001C18.4477 11.5001 18 11.9478 18 12.5001C18 13.0524 18.4477 13.5001 19 13.5001C19.5523 13.5001 20 13.0524 20 12.5001Z" stroke="black" stroke-width="1.99832" stroke-linecap="round" stroke-linejoin="round"/>
</svg>
