<svg width="20" height="22" viewBox="0 0 20 22" fill="none" xmlns="http://www.w3.org/2000/svg">
<path d="M18.4698 21.3486C18.4698 17.3008 13.9186 14.0103 9.83665 14.0103C5.75465 14.0103 1.20349 17.3008 1.20349 21.3486M9.83665 10.3423C11.145 10.3423 12.3997 9.82689 13.3249 8.90949C14.25 7.99209 14.7697 6.74783 14.7697 5.45044C14.7697 4.15304 14.25 2.90878 13.3249 1.99138C12.3997 1.07398 11.145 0.558594 9.83665 0.558594C8.52831 0.558594 7.27357 1.07398 6.34844 1.99138C5.42331 2.90878 4.90358 4.15304 4.90358 5.45044C4.90358 6.74783 5.42331 7.99209 6.34844 8.90949C7.27357 9.82689 8.52831 10.3423 9.83665 10.3423Z" stroke="#1E1F23" stroke-width="1.10402" stroke-linecap="round" stroke-linejoin="round"/>
</svg>
